# xmcd CD database file
#
# Track frame offsets:
#	150
#	19939
#	38447
#	58524
#	78652
#	95087
#	115349
#	134281
#	152754
#	168626
#	186247
#	207582
#
# Disc length: 3059 seconds
#
# Revision: 2
# Processed by: cddbd v1.5.2PL0 Copyright (c) Steve Scherf et al.
# Submitted via: CDex 1.70beta2
#
DISCID=a60bf10c
DTITLE=Adi Yeshaya - Rainy Afternoon Jazz
DYEAR=2009
DGENRE=Jazz
TTITLE0=A Walk In The Park
TTITLE1=Jumping Over Puddles
TTITLE2=Raindrops On My Window
TTITLE3=Casual Friday
TTITLE4=Siesta
TTITLE5=Easy Does It
TTITLE6=Porch Swing
TTITLE7=Turkish Delight
TTITLE8=Espresso Con Biscotti
TTITLE9=New England Rainbows
TTITLE10=Jaffa Twilight Time
TTITLE11=Horizons
EXTD=YEAR: 2009
EXTT0=
EXTT1=
EXTT2=
EXTT3=
EXTT4=
EXTT5=
EXTT6=
EXTT7=
EXTT8=
EXTT9=
EXTT10=
EXTT11=
PLAYORDER=
